<?xml version="1.0" standalone="no"?>
<!DOCTYPE svg PUBLIC "-//W3C//DTD SVG 1.1//EN" "http://www.w3.org/Graphics/SVG/1.1/DTD/svg11.dtd" >
<svg xmlns="http://www.w3.org/2000/svg">
<metadata>
This is a custom SVG webfont generated by Font Squirrel.
Copyright   :  copyright by Fontbit
</metadata>
<defs>
<font id="EnSpoilerRegular" horiz-adv-x="634" >
<font-face units-per-em="2048" ascent="1638" descent="-410" />
<missing-glyph horiz-adv-x="449" />
<glyph unicode=" " horiz-adv-x="449" d="M0 1112z" />
<glyph unicode="!" horiz-adv-x="555" d="M193 86q0 56 19.5 77t73.5 21q55 0 73.5 -19.5t18.5 -78.5q0 -55 -19 -74.5t-73 -19.5q-63 0 -79 21q-14 19 -14 73zM198 781v396q0 74 69 74h29q67 0 67 -74v-396q0 -275 -63 -438h-41q-61 164 -61 438z" />
<glyph unicode="&#x22;" horiz-adv-x="576" d="M99 1188q0 48 47 48h33q53 0 53 -45v-135q0 -173 -69 -282q-29 -46 -46 -46t-17 44zM356 1188q0 48 48 48h33q54 0 53 -45v-135q-1 -173 -70 -282q-28 -46 -45 -46q-18 0 -18 44z" />
<glyph unicode="#" horiz-adv-x="936" d="M52 337v36q0 37 47 37h150v404h-150q-47 0 -47 37v36q0 37 47 37h150v256q0 46 38 46h36q37 0 37 -46v-256h227v256q0 46 35 46h38q38 0 38 -46v-256h140q46 0 46 -37v-36q0 -37 -46 -37h-140v-404h140q46 0 46 -37v-36q0 -38 -46 -38h-140v-253q0 -46 -38 -46h-38 q-35 0 -35 46v253h-227v-253q0 -46 -37 -46h-36q-38 0 -38 46v253h-150q-47 0 -47 38zM360 410h227v404h-227v-404z" />
<glyph unicode="$" horiz-adv-x="871" d="M73 71v38q0 40 27 40q7 0 15 -3q110 -30 264 -30h2v466l-71 30q-225 93 -225 295q0 133 78.5 215.5t217.5 95.5v71q0 46 38 46h25q38 0 38 -46v-69q149 -16 223 -48q21 -9 21 -36v-31q0 -38 -29 -38q-6 0 -13 1q-134 27 -202 27v-418l95 -39q240 -99 240 -323 q0 -142 -82 -227q-88 -91 -253 -98v-76q0 -46 -38 -46h-25q-38 0 -38 46v76q-200 8 -286 45q-22 10 -22 36zM210 871q0 -84 171 -157v378q-77 0 -124 -37.5t-47 -104.5v-79zM482 116h12q78 0 130 37q56 39 56 110v82q0 117 -155 183l-43 19v-431z" />
<glyph unicode="%" horiz-adv-x="1305" d="M115 806v13q0 143 64 205q59 59 187 59q132 0 191 -60t59 -204v-13q0 -261 -250 -261q-134 0 -192.5 59t-58.5 202zM239 806q0 -94 26 -124t101 -30q76 0 101 30t25 124v15q0 94 -26.5 124.5t-99.5 30.5q-76 0 -101.5 -30t-25.5 -125v-15zM266 33q0 13 8 26l629 966 q24 37 57 37h50q36 0 36 -29q0 -13 -9 -28l-622 -957q-32 -48 -61 -48h-48q-40 0 -40 33zM689 243v13q0 140 64 202q60 59 188 59q131 0 190 -59.5t59 -201.5v-13q0 -264 -249 -264q-136 0 -192 59q-60 61 -60 205zM813 241q0 -94 26.5 -124.5t101.5 -30.5t100.5 30 t25.5 125v15q0 93 -28 125q-25 30 -98 30q-77 0 -102.5 -30t-25.5 -125v-15z" />
<glyph unicode="&#x26;" horiz-adv-x="1159" d="M33 269q0 127 64 204q36 45 130 101l152 90q6 4 -3 14l-37 40q-64 69 -83 130q-15 49 -15 145q0 138 50 209q66 92 231 92h12q147 0 212 -60q70 -65 70 -220q0 -222 -143 -316l-88 -58q-5 -4 4 -12l317 -322q27 58 27 187q0 8 1 35v34q0 30 31 30h95q27 0 31 -29 q3 -16 3 -60q0 -175 -105 -280l176 -178q12 -12 12 -25q0 -24 -24 -24h-69q-30 0 -62 32l-106 108q-152 -155 -405 -155h-98q-380 0 -380 288zM206 257q0 -85 56.5 -115t227.5 -30q135 0 194 13q94 20 156 87l-349 353q-12 13 -24 6l-190 -110q-71 -42 -71 -114v-90z M405 945q0 -123 47 -176l27 -30q5 -6 11 -6t13 5l71 49q86 58 86 168v78q0 92 -23 123t-88 31h-36q-108 0 -108 -133v-109z" />
<glyph unicode="'" horiz-adv-x="320" d="M99 1188q0 48 47 48h33q53 0 53 -45l1 -135q0 -171 -70 -282q-29 -46 -46 -46t-17 44z" />
<glyph unicode="(" horiz-adv-x="503" d="M80 513q0 219 99 480q95 249 221 389q14 15 31 15q14 0 30 -10q16 -12 16 -25q0 -14 -19 -42q-78 -124 -143 -323q-76 -238 -76 -435v-97q0 -193 75 -423q64 -193 144 -321q17 -26 17 -44q0 -14 -10 -23q-14 -11 -29 -11q-19 0 -38 19q-134 144 -225 385q-93 246 -93 466 z" />
<glyph unicode=")" horiz-adv-x="503" d="M28 1362q0 13 16 25q16 10 30 10q17 0 31 -15q126 -140 221 -389q99 -261 99 -480q0 -220 -93 -466q-91 -241 -225 -385q-19 -19 -38 -19q-15 0 -29 11q-11 9 -11 23q0 18 17 44q81 128 145 321q75 230 75 423v97q0 197 -77 435q-64 199 -143 323q-18 28 -18 42z" />
<glyph unicode="*" horiz-adv-x="819" d="M80 1075q0 41 47 41l212 -2l-119 163q-14 19 -14 41q0 40 32 40q24 0 49 -35l121 -172l124 179q19 27 46 27q34 0 34 -35q0 -20 -17 -45l-115 -163l207 2q53 0 53 -39q0 -45 -51 -45h-2l-209 4l127 -169q24 -31 17 -59q-5 -27 -30 -27q-26 0 -54 37l-132 176l-130 -177 q-23 -33 -53 -33q-34 0 -34 33q0 20 17 41l135 180l-215 -6h-4q-42 0 -42 43z" />
<glyph unicode="+" horiz-adv-x="714" d="M42 603v43q0 38 46 38h210v212q0 48 37 48h44q38 0 38 -48v-212h207q48 0 48 -38v-43q0 -38 -48 -38h-207v-216q0 -46 -38 -46h-44q-37 0 -37 46v216h-210q-46 0 -46 38z" />
<glyph unicode="," horiz-adv-x="341" d="M30 -183q-2 2 -2 7q0 8 4 21l100 354q13 48 61 48h33q41 0 41 -33q0 -9 -3 -21l-42 -136q-37 -119 -130 -221q-23 -25 -42 -25q-16 0 -20 6z" />
<glyph unicode="-" horiz-adv-x="714" d="M84 598v57q0 38 46 38h452q49 0 49 -38v-57q0 -37 -49 -37h-452q-46 0 -46 37z" />
<glyph unicode="." horiz-adv-x="343" d="M63 96q0 109 98 109q55 0 76.5 -24.5t21.5 -84.5q0 -104 -98 -104q-56 0 -77 22t-21 82z" />
<glyph unicode="/" horiz-adv-x="714" d="M12 -52q0 12 7 28l521 1272q16 38 57 38h50q35 0 35 -28q0 -12 -8 -29l-517 -1264q-19 -48 -60 -48h-49q-36 0 -36 31z" />
<glyph unicode="0" horiz-adv-x="956" d="M97 610q0 378 72 495q85 136 304 136q243 0 323 -136q64 -108 64 -478q0 -386 -59 -495q-80 -147 -321 -147q-251 0 -328 147q-55 105 -55 478zM261 360q0 -141 38 -190q41 -53 165 -53h34q113 0 159 63q41 56 41 183v469q0 158 -41.5 216.5t-158.5 58.5h-52 q-108 0 -147 -62q-38 -55 -38 -204v-481z" />
<glyph unicode="1" horiz-adv-x="956" d="M233 1062v45q0 37 36 40l52 3q54 5 152 45q96 39 105 39h23q53 0 53 -48v-1131q0 -33 -5 -42q-6 -13 -31 -13h-86q-39 0 -39 55v993q-80 -17 -164 -17q-27 0 -54 2t-31 5q-11 5 -11 24z" />
<glyph unicode="2" horiz-adv-x="956" d="M90 50v32q0 23 37 71l425 540q97 123 97 203v14q0 186 -235 186h-5q-113 0 -202 -20q-44 -11 -44 27v57q0 28 20 35q102 35 262 35h6q169 0 261 -86q89 -82 89 -227q0 -150 -143 -325l-372 -453h531q50 0 50 -39v-65q0 -25 -14 -31q-8 -4 -36 -4h-685q-42 0 -42 50z" />
<glyph unicode="3" horiz-adv-x="956" d="M103 46v59q0 41 40 34q103 -20 266 -20h5q155 0 211.5 39.5t56.5 153.5v64q0 94 -64 144q-50 40 -119 40h-215q-44 0 -44 50v35q0 47 44 47h228q63 0 96 52q30 46 30 119v52q0 112 -52 148q-48 33 -192 33h-4q-83 0 -177 -10q-5 -1 -9 -1q-35 0 -35 38v47q0 30 20 35 q91 25 269 25h6q328 0 328 -307q0 -104 -33 -163t-113 -100q-6 -3 -7 -10q0 -7 7 -10l36 -13q159 -57 159 -297q0 -345 -398 -345h-10q-237 0 -307 30q-23 9 -23 31z" />
<glyph unicode="4" horiz-adv-x="956" d="M66 388q0 45 11 65l409 721q28 50 60 50h158q44 0 44 -40v-731h125q24 0 34 -6t10 -34v-46q0 -31 -17 -37q-8 -3 -27 -3h-125v-283q0 -28 -6.5 -36t-32.5 -8h-71q-26 0 -31 8q-4 6 -4 36v283h-506q-22 0 -27 13q-4 10 -4 48zM217 453h386v652h-18z" />
<glyph unicode="5" horiz-adv-x="956" d="M116 57v67q0 35 22 35q9 0 23 -6q73 -34 246 -34h4q157 0 216 55q53 48 53 169v49q0 210 -247 210h-248q-23 0 -28 7q-3 5 -3 28v539q0 48 44 48h523q20 0 31 -3q20 -6 20 -37v-48q0 -29 -6 -37q-6 -12 -34 -12h-433v-362l163 4h19q360 0 360 -367q0 -175 -100 -273 q-106 -104 -312 -104h-9q-176 0 -281 44q-23 9 -23 28z" />
<glyph unicode="6" horiz-adv-x="956" d="M121 345v494q0 160 75 261q89 120 261 120h9q125 0 280 -35q28 -7 28 -36v-54q0 -24 -8 -28t-34 -1q-14 1 -99 11q-70 9 -98 9h-16q-137 0 -193 -54q-51 -50 -51 -170v-212v-10q0 -4 2 -3q3 1 9 7q97 92 191 92h36q336 0 336 -374q0 -172 -93 -275q-96 -106 -263 -106 h-22q-172 0 -263 98q-87 95 -87 266zM275 343q0 -118 45 -171q47 -57 157 -57h9q113 0 160 67q42 58 42 182v18q0 223 -190 223h-14q-119 0 -166 -22q-43 -22 -43 -75v-165z" />
<glyph unicode="7" horiz-adv-x="956" d="M110 1117v67q0 40 51 40h664q32 0 32 -45q0 -21 -6 -39l-380 -1090q-18 -50 -55 -50h-89q-29 0 -30 19q0 9 6 29l379 1039h-521q-51 0 -51 30z" />
<glyph unicode="8" horiz-adv-x="956" d="M86 340q0 247 164 316l36 15q12 3 -4 13q-130 71 -130 258q0 124 65 201q80 95 241 95h41q158 0 238 -95q68 -79 68 -201q0 -184 -127 -255q-20 -11 -7 -16l40 -15q160 -60 160 -316q0 -172 -93 -266q-96 -97 -280 -97h-39q-184 0 -280 97q-93 94 -93 266zM242 298 q0 -114 53 -155q48 -38 176 -38h15q128 0 176 38q53 41 53 155v100q0 182 -169 182h-135q-169 0 -169 -182v-100zM299 853q0 -153 121 -153h117q121 0 121 153v78q0 95 -36 136.5t-123 41.5h-41q-88 0 -123.5 -40t-35.5 -138v-78z" />
<glyph unicode="9" horiz-adv-x="956" d="M107 834q0 179 78 280q86 113 257 113h66q327 0 327 -355v-504q0 -158 -80 -261q-93 -120 -267 -120h-8q-136 0 -291 36q-28 6 -28 36v54q0 23 9 28q7 3 33 1q12 -1 104 -12q76 -8 104 -8h16q138 0 197 54q58 51 58 169v212v10q-1 4 -3 3q-3 0 -8 -6q-97 -92 -202 -92 h-26q-172 0 -252 83q-84 87 -84 279zM268 794q0 -106 47 -151q45 -41 143 -41h15q119 0 166 23q43 21 43 75v184q0 116 -45.5 162.5t-157.5 46.5h-8q-118 0 -160.5 -45.5t-42.5 -163.5v-90z" />
<glyph unicode=":" horiz-adv-x="398" d="M94 107q0 109 99 109q54 0 75.5 -25t21.5 -84q0 -104 -97 -104q-57 0 -78 22t-21 82zM94 776q0 108 99 108q54 0 75.5 -24.5t21.5 -83.5q0 -105 -97 -105q-57 0 -78 22t-21 83z" />
<glyph unicode=";" horiz-adv-x="396" d="M30 -121q-2 3 -2 8q0 8 4 21l100 354q13 48 61 48h33q41 0 41 -34q0 -9 -3 -20l-42 -137q-37 -118 -130 -219q-23 -26 -42 -26q-16 0 -20 5zM94 776q0 108 99 108q54 0 75.5 -24.5t21.5 -83.5q0 -105 -97 -105q-57 0 -78 22t-21 83z" />
<glyph unicode="&#x3c;" horiz-adv-x="714" d="M63 604v9v31q0 14 0 11q2 27 46 56l431 295q24 16 43 16q27 0 27 -29v-58q0 -24 -11 -35q-5 -5 -37 -26l-378 -244l378 -247q31 -20 37 -26q11 -11 11 -34v-57q0 -28 -27 -28q-19 0 -43 16l-431 292q-44 30 -46 58z" />
<glyph unicode="=" horiz-adv-x="714" d="M63 420v57q0 38 46 38h495q48 0 48 -38v-57q0 -37 -48 -37h-495q-46 0 -46 37zM63 770v59q0 23 8.5 29t37.5 6h495q27 0 35 -4q13 -6 13 -31v-59q0 -26 -13 -33q-8 -3 -35 -3h-495q-29 0 -37.5 6t-8.5 30z" />
<glyph unicode="&#x3e;" horiz-adv-x="714" d="M94 266v57q0 23 11 34q5 6 37 26l378 247l-378 244q-32 21 -37 26q-11 11 -11 35v58q0 29 27 29q19 0 43 -16l431 -295q26 -18 34 -26q11 -12 12 -30v-11v-31v-9q-2 -28 -46 -58l-431 -292q-24 -16 -43 -16q-27 0 -27 28z" />
<glyph unicode="?" horiz-adv-x="762" d="M82 1122v37q0 28 18 36q88 37 256 37h9q316 0 316 -289q0 -94 -47 -169q-30 -52 -112 -134l-65 -65q-84 -84 -97 -166l-6 -39q-8 -50 -38 -50h-20q-34 0 -39.5 22.5t-5.5 106.5v7q0 97 97 199l87 92q89 92 89 154v22q0 104 -45 144t-169 40h-4q-40 0 -186 -24 q-4 -1 -7 -1q-31 0 -31 40zM216 86q0 56 19.5 77t72.5 21q56 0 74 -19.5t18 -78.5q0 -55 -18.5 -74.5t-73.5 -19.5q-62 0 -78 21q-14 19 -14 73z" />
<glyph unicode="@" horiz-adv-x="1847" d="M191 546q0 767 767 767q301 0 481 -128q228 -162 228 -514q0 -221 -109 -350q-95 -113 -225 -113q-85 0 -129 25q-50 29 -94 114q-31 -84 -80.5 -114.5t-158.5 -30.5q-130 0 -205 92t-75 245q0 403 384 403q151 0 236 -19q40 -9 40 -30v-521q0 -80 84 -80q86 0 135 86 t49 243q0 328 -167 461q-136 107 -422 107q-317 0 -446 -137q-134 -142 -134 -496q0 -321 150 -466q137 -130 413 -130q296 0 488 101q32 17 32 -14v-58q0 -27 -31 -46q-193 -116 -465 -116q-746 0 -746 719zM737 551q0 -135 42 -194.5t141 -59.5q70 0 125 37q65 45 65 119 v381q0 13 -23 16q-42 6 -83 6q-119 0 -167 -31q-100 -64 -100 -274z" />
<glyph unicode="A" horiz-adv-x="1127" d="M51 19q0 9 9 35l372 1126q13 40 53 40h160q40 0 53 -40l377 -1132q5 -15 5 -25q0 -23 -24 -23h-88q-36 0 -47 34l-94 275h-522l-92 -269q-13 -40 -48 -40h-88q-26 0 -26 19zM343 440h442l-208 642h-23z" />
<glyph unicode="B" horiz-adv-x="1164" d="M156 35v1151q0 34 38 34h466q151 0 223 -58q83 -69 83 -229v-39q0 -99 -41 -153.5t-141 -84.5q141 -9 201 -70q69 -71 69 -247v-28q0 -311 -392 -311h-468q-38 0 -38 35zM311 696h329q100 0 139 48q35 42 35 145q0 104 -37 149q-40 48 -135 48h-331v-390zM311 136h410 q98 0 136 55q35 47 35 159t-37 162q-40 56 -134 56h-410v-432z" />
<glyph unicode="C" horiz-adv-x="1101" d="M117 609q0 256 41 367q35 94 136 166q123 87 346 87q134 0 297 -32q53 -10 53 -52v-45q0 -28 -49 -28h-13q-109 10 -336 10q-157 0 -228 -66q-77 -69 -77 -230v-348q0 -161 75 -232q71 -67 229 -67q275 0 343 3q33 2 40 0q16 -4 16 -30v-39q0 -36 -46 -47 q-140 -33 -304 -33q-280 0 -387 114q-72 76 -101 178q-35 116 -35 324z" />
<glyph unicode="D" horiz-adv-x="1241" d="M156 46v1134q0 40 41 40h391q229 0 347 -84q101 -71 135 -161q41 -111 41 -366q0 -207 -33 -316q-28 -93 -101 -170q-115 -123 -377 -123h-406q-38 0 -38 46zM319 140h303q163 0 237 60q82 67 82 224v362q0 298 -330 298h-292v-944z" />
<glyph unicode="E" horiz-adv-x="1049" d="M156 35v1151q0 35 38 35h710q31 0 36 -18q2 -6 2 -20v-59q0 -41 -38 -41h-588v-387h518q31 0 36 -18q2 -7 2 -20v-58q0 -41 -38 -41h-518v-418h588q38 0 38 -41v-62q0 -14 -3 -22q-5 -16 -35 -16h-710q-38 0 -38 35z" />
<glyph unicode="F" horiz-adv-x="976" d="M156 35v1151q0 35 38 35h653q31 0 37 -18q1 -6 1 -20v-59q0 -41 -38 -41h-532v-387h462q31 0 37 -18q2 -7 2 -20v-58q0 -41 -39 -41h-462v-521q0 -38 -36 -38h-85q-38 0 -38 35z" />
<glyph unicode="G" horiz-adv-x="1243" d="M130 427v330q0 234 101 343q115 125 392 125q238 0 395 -30q36 -6 36 -36v-47q0 -35 -40 -35h-7q-84 4 -397 4q-312 0 -312 -213v-497q0 -130 67 -187q72 -59 246 -59q209 0 331 9v394q0 9 -14 9h-306q-46 0 -46 38v67q0 38 43 38h417q51 0 58 -34q2 -12 2 -34v-537 q0 -28 -63 -42q-177 -43 -382 -43q-177 0 -272 27q-90 26 -148 89q-101 108 -101 321z" />
<glyph unicode="H" horiz-adv-x="1262" d="M156 46v1134q0 40 41 40h84q38 0 38 -43v-481h625v484q0 40 40 40h84q38 0 38 -43v-1131q0 -46 -41 -46h-84q-37 0 -37 46v513h-625v-513q0 -46 -41 -46h-84q-38 0 -38 46z" />
<glyph unicode="I" horiz-adv-x="422" d="M130 46v1134q0 40 41 40h84q38 0 38 -43v-1131q0 -46 -41 -46h-84q-38 0 -38 46z" />
<glyph unicode="J" horiz-adv-x="511" d="M-93 -149q0 27 47 24q41 -1 52 -1q215 0 215 223v1083q0 41 38 41h83q38 0 38 -35v-1040q0 -411 -342 -411q-53 0 -108 17q-23 6 -23 48v51z" />
<glyph unicode="K" horiz-adv-x="1154" d="M156 46v1134q0 40 41 40h84q38 0 38 -43v-1131q0 -46 -41 -46h-84q-38 0 -38 46zM342 619q0 19 19 40l481 534q25 27 63 27h106q24 0 24 -23q0 -14 -9 -24l-496 -547l575 -582q10 -11 10 -22q0 -22 -28 -22h-126q-36 0 -63 28l-539 555q-17 18 -17 36z" />
<glyph unicode="L" horiz-adv-x="969" d="M156 35v1151q0 35 38 35h83q39 0 39 -40v-1040h543q38 0 38 -41v-62q0 -14 -1 -22q-6 -16 -37 -16h-665q-38 0 -38 35z" />
<glyph unicode="M" horiz-adv-x="1501" d="M156 46v1134q0 40 52 40h164q41 0 55 -44l321 -1018l327 1018q15 44 55 44h167q49 0 49 -43v-1131q0 -46 -40 -46h-79q-38 0 -38 46v833l12 195h-9l-342 -1032q-14 -41 -54 -41h-103q-41 0 -54 41l-329 1032h-8l11 -195v-833q0 -46 -41 -46h-78q-38 0 -38 46z" />
<glyph unicode="N" horiz-adv-x="1262" d="M156 46v1134q0 40 41 40h111q31 0 60 -44l581 -935l8 4l-11 169v766q0 40 41 40h81q38 0 38 -43v-1131q0 -46 -41 -46h-91q-35 0 -64 48l-598 955l-8 -2l9 -163v-792q0 -46 -41 -46h-78q-38 0 -38 46z" />
<glyph unicode="O" horiz-adv-x="1320" d="M123 606q0 304 78 432q69 112 171.5 158t286.5 46h3q188 0 289 -43t167 -150q79 -127 79 -418q0 -318 -108 -465q-72 -99 -163 -141q-98 -44 -264 -44h-3q-169 0 -264 37q-104 39 -175 140q-97 141 -97 448zM290 507q0 -378 311 -378h123q308 0 308 355v256 q0 199 -80 280q-69 72 -228 72h-146q-147 0 -215 -75q-73 -80 -73 -266v-244z" />
<glyph unicode="P" horiz-adv-x="1100" d="M156 46v1134q0 40 41 40h475q149 0 235 -73q95 -83 95 -244v-71q0 -328 -406 -328h-139q-48 0 -138 24v-482q0 -46 -41 -46h-84q-38 0 -38 46zM319 638h356q101 0 140 55q34 50 34 170q0 220 -172 220h-358v-445z" />
<glyph unicode="Q" horiz-adv-x="1335" d="M123 606q0 304 78 432q69 112 171.5 158t286.5 46h3q183 0 289 -46q99 -44 167 -147q79 -118 79 -418q0 -186 -29 -291q-32 -112 -112 -194l211 -248q13 -15 13 -28q0 -17 -22 -17h-121q-30 0 -55 30l-141 169q-112 -71 -279 -71h-3q-315 0 -439 177q-97 141 -97 448z M290 507q0 -378 311 -378h71q107 0 179 40l-164 196q-11 13 -11 26q0 22 25 22h91q34 0 59 -31l108 -129q73 78 73 244v256q0 197 -80 274q-68 65 -228 65h-146q-149 0 -215 -68q-73 -75 -73 -260v-257z" />
<glyph unicode="R" horiz-adv-x="1131" d="M156 46v1134q0 40 41 40h475q149 0 235 -73q95 -83 95 -244v-52q0 -295 -315 -337l380 -470q11 -14 11 -26q0 -18 -22 -18h-119q-28 0 -48 25l-375 484q-116 0 -198 19v-482q0 -46 -41 -46h-81q-38 0 -38 46zM316 651h359q101 0 140 53q34 47 34 159q0 123 -37 171.5 t-135 48.5h-361v-432z" />
<glyph unicode="S" horiz-adv-x="1108" d="M124 891q0 189 123 276q61 43 143 56q52 8 166 8q163 0 287 -24q54 -10 54 -44v-49q0 -20 -16 -25q-9 -2 -47 -2h-137q-116 1 -167 1q-151 0 -196.5 -30.5t-45.5 -128.5v-37q0 -115 26 -143q37 -40 183 -40h73q243 0 332 -85.5t89 -280.5q0 -201 -151 -292 q-103 -62 -332 -62q-176 0 -304 25q-55 11 -55 52v47q0 27 49 27h14q148 -12 309 -12q177 0 235 29q64 33 64 136v88q0 131 -52 167q-42 28 -190 28h-131q-176 0 -252 79q-71 74 -71 236z" />
<glyph unicode="T" horiz-adv-x="1028" d="M72 1122v61q0 15 2 23q6 15 36 15h812q30 0 36 -18q2 -6 2 -20v-61q0 -41 -38 -41h-324v-1046q0 -35 -38 -35h-84q-38 0 -38 41v1040h-328q-38 0 -38 41z" />
<glyph unicode="U" horiz-adv-x="1261" d="M156 386v790q0 45 38 45h84q41 0 41 -45v-816q0 -114 54 -165q71 -67 258 -67q189 0 259 67q52 51 52 165v816q0 45 41 45h84q38 0 38 -45v-790q0 -190 -93 -283q-112 -112 -377 -112q-273 0 -384 105q-95 91 -95 290z" />
<glyph unicode="V" horiz-adv-x="1213" d="M68 1178q-4 12 -4 21q0 22 29 22h99q20 0 26 -4t15 -31l363 -1038h22l358 1036q13 37 54 37h91q29 0 29 -24q0 -10 -5 -24l-410 -1131q-15 -41 -53 -41h-153q-39 0 -53 41z" />
<glyph unicode="W" horiz-adv-x="1847" d="M70 1173q-4 12 -4 22q0 26 30 26h98q32 0 43 -39l292 -1033h11l276 995q12 45 54 45h113q43 0 56 -45l275 -995h11l285 1031q11 41 44 41h98q30 0 30 -25q0 -9 -4 -21l-329 -1133q-11 -41 -53 -41h-147q-42 0 -53 41l-266 974h-8l-266 -974q-12 -41 -53 -41h-151 q-41 0 -53 41z" />
<glyph unicode="X" horiz-adv-x="1240" d="M47 22q0 14 15 34l451 578l-397 539q-12 16 -12 29q0 19 25 19h120q33 0 54 -30l317 -443l317 441q23 32 57 32h123q24 0 24 -19q0 -13 -13 -29l-400 -535l449 -582q15 -20 15 -34q0 -22 -28 -22h-107q-38 0 -69 42l-369 479l-372 -479q-32 -42 -69 -42h-103 q-28 0 -28 22z" />
<glyph unicode="Y" horiz-adv-x="1123" d="M65 1198q0 23 30 23h117q20 0 25.5 -3t22.5 -30l307 -456l263 448q24 41 57 41h115q28 0 28 -19q0 -12 -9 -26l-372 -590v-540q0 -46 -41 -46h-83q-39 0 -39 46v540l-412 587q-9 13 -9 25z" />
<glyph unicode="Z" horiz-adv-x="1027" d="M53 35q-1 5 -1 11q0 17 10 32l630 1003h-551q-38 0 -38 41v61q0 15 3 24q6 14 35 14h757q33 0 33 -37q0 -23 -9 -37l-637 -1006h652q39 0 39 -38v-62q0 -41 -39 -41h-862q-16 0 -18.5 11.5t-3.5 23.5z" />
<glyph unicode="[" horiz-adv-x="668" d="M147 -281v1609q0 69 65 69h373q42 0 42 -50v-19q0 -52 -42 -52h-298v-1505h298q42 0 42 -52v-18q0 -51 -42 -51h-373q-65 0 -65 69z" />
<glyph unicode="\" horiz-adv-x="714" d="M23 1258q0 28 35 28h50q41 0 57 -38l521 -1272q7 -16 7 -28q0 -31 -36 -31h-49q-41 0 -60 48l-517 1264q-8 17 -8 29z" />
<glyph unicode="]" horiz-adv-x="668" d="M42 -281q0 52 40 52h299v1505h-299q-40 0 -40 52v19q0 50 40 50h375q65 0 65 -69v-1609q0 -69 -65 -69h-375q-40 0 -40 51v18z" />
<glyph unicode="^" horiz-adv-x="996" d="M76 601l353 643h142l349 -643h-151l-262 527h-14l-266 -527h-151z" />
<glyph unicode="_" horiz-adv-x="822" d="M22 -38q0 38 47 38h687q48 0 48 -38v-56q0 -38 -48 -38h-687q-47 0 -47 38v56z" />
<glyph unicode="`" horiz-adv-x="290" d="M17 1360q0 24 43 24h23q45 0 60 -38l132 -328q5 -11 5 -18q0 -15 -23 -15q-19 0 -42 25q-61 66 -81 93q-34 46 -61 110l-52 126q-4 12 -4 21z" />
<glyph unicode="a" horiz-adv-x="897" d="M72 253v40q0 265 276 265h84q119 0 185 -76l9 156v15q0 79 -49 111t-168 32t-229 -19q-31 -5 -31 29v56q0 25 37 35q115 31 264 31q143 0 216 -56q99 -76 99 -274v-402q0 -75 43 -75h36q30 0 30 -29v-31q0 -28 -36 -38l-44 -11q-68 -18 -70 -18q-66 0 -104 105 q-31 -33 -76 -65q-64 -44 -165 -44h-37q-270 0 -270 263zM214 249q0 -129 145 -129h71q117 0 165 33q23 16 23 45v162q0 43 -23 58q-29 21 -117 21h-139q-74 0 -102 -34q-23 -29 -23 -101v-55z" />
<glyph unicode="b" horiz-adv-x="942" d="M125 78v1217q0 31 27 31h97q27 0 27 -31v-469q70 98 207 98h41q147 0 233 -76q87 -80 87 -224v-305q0 -158 -103 -247q-95 -81 -243 -81h-87q-179 0 -250 35q-36 19 -36 52zM272 152q0 -28 115 -28h151q159 0 159 184v314q0 69 -37 116q-45 61 -133 61h-114 q-74 0 -107.5 -24t-33.5 -76v-547z" />
<glyph unicode="c" horiz-adv-x="815" d="M89 459q0 175 34 270q30 84 98 132q94 67 244 67q109 0 227 -33q37 -11 37 -36v-70q0 -26 -42 -18q-111 21 -205 21q-117 0 -171 -33q-67 -41 -67 -145v-304q0 -104 57 -144q49 -35 162 -35q84 0 227 15q39 4 39 -20v-66q0 -21 -31 -31q-110 -36 -233 -36q-193 0 -281 93 q-95 102 -95 373z" />
<glyph unicode="d" horiz-adv-x="945" d="M93 328v283q0 153 91 237q83 76 219 76h89q119 0 170 -73v444q0 31 27 31h98q26 0 26 -31v-1099q0 -72 43 -72h37q29 0 29 -29v-31q0 -25 -38 -38l-45 -14q-55 -19 -75 -19q-56 0 -96 93q-74 -91 -185 -91h-67q-323 0 -323 333zM242 316q0 -188 158 -188h108q81 0 135 31 q23 13 23 51v512q0 37 -23 54q-34 23 -81 23h-175q-76 0 -115 -68q-30 -52 -30 -124v-291z" />
<glyph unicode="e" horiz-adv-x="891" d="M93 459q0 318 134 412q81 57 218 57q145 0 223 -55q68 -48 96 -112q31 -73 31 -203v-142q0 -31 -37 -31h-511v-74q0 -105 59 -146q50 -37 165 -37q86 0 239 20q39 5 39 -28v-53q0 -21 -32 -32q-119 -42 -258 -42q-180 0 -267 93q-99 105 -99 373zM247 502h397v151 q0 79 -46.5 111.5t-152.5 32.5q-112 0 -155 -35t-43 -122v-138z" />
<glyph unicode="f" horiz-adv-x="574" d="M29 817v45q0 18 19 23l59 15q33 9 40 15q11 12 11 52v82q0 146 79 220q63 57 156 57q66 0 130 -20q22 -8 22 -34v-57q0 -19 -32 -17q-28 1 -94 1q-123 0 -123 -116q0 -13 1 -25l14 -143h197q25 0 25 -24v-74q0 -28 -26 -28h-194v-761q0 -28 -26 -28h-95q-26 0 -26 24v765 h-111q-26 0 -26 28z" />
<glyph unicode="g" horiz-adv-x="932" d="M93 305v277q0 169 98 262q92 87 247 87h113q205 0 240 -26q19 -13 20.5 -16.5t1.5 -26.5v-879q0 -166 -103 -273q-83 -85 -252 -85q-150 0 -274 43q-37 12 -37 34v54q0 34 43 23q106 -28 255 -28q224 0 224 184v13l-7 142q-43 -50 -77 -70q-51 -28 -131 -28h-51 q-148 0 -229 82t-81 231zM242 294q0 -177 158 -177h93q105 0 150 45q23 24 23 55v539q0 32 -10 35q-30 9 -131 9h-107q-176 0 -176 -188v-318z" />
<glyph unicode="h" horiz-adv-x="969" d="M130 32v1263q0 31 27 31h98q26 0 26 -31v-464q62 93 196 93h84q133 0 208 -72q81 -78 81 -228v-592q0 -32 -27 -32h-89q-27 0 -27 32v601q0 166 -156 166h-155q-51 0 -85 -24t-34 -53v-690q0 -32 -27 -32h-93q-27 0 -27 32z" />
<glyph unicode="i" horiz-adv-x="397" d="M125 24v862q0 28 26 28h95q26 0 26 -24v-862q0 -28 -26 -28h-95q-26 0 -26 24zM126 1069v100q0 28 26 28h95q25 0 25 -24v-101q0 -28 -26 -28h-95q-25 0 -25 25z" />
<glyph unicode="j" horiz-adv-x="431" d="M-54 -108q0 19 31 17q29 -2 56 -2q126 0 126 130v849q0 28 26 28h96q26 0 26 -24v-834q0 -147 -74 -220q-58 -57 -148 -57q-54 0 -118 20q-21 8 -21 34v59zM159 1069v100q0 28 26 28h96q26 0 26 -24v-101q0 -28 -26 -28h-96q-26 0 -26 25z" />
<glyph unicode="k" horiz-adv-x="908" d="M130 24v1274q0 28 26 28h96q26 0 26 -24v-1274q0 -28 -26 -28h-96q-26 0 -26 24zM306 464q-10 11 -10 23q0 13 12 25l365 382q20 20 51 20h106q14 0 17 -14q4 -13 -5 -22l-376 -388l415 -460q6 -8 6 -15q0 -3 -1 -6q-3 -9 -17 -9h-121q-26 0 -49 25z" />
<glyph unicode="l" horiz-adv-x="446" d="M130 134v1161q0 31 27 31h97q27 0 27 -31v-1120q0 -54 45 -56l45 -2q38 -2 38 -29v-45q0 -34 -38 -39l-44 -6q-41 -5 -76 -5h-2q-119 0 -119 141z" />
<glyph unicode="m" horiz-adv-x="1437" d="M125 32v823q0 23 1 26t20 16q15 12 85 23q78 12 156 12h103q169 0 243 -128q79 128 204 128h108q274 0 274 -275v-625q0 -32 -27 -32h-100q-27 0 -27 32v623q0 81 -40 112q-35 29 -117 29h-76q-85 0 -127 -31q-16 -11 -16 -121v-612q0 -32 -26 -32h-101q-27 0 -27 32v621 q0 88 -39 119q-32 24 -119 24h-58q-98 0 -130 -8q-11 -4 -11 -36v-720q0 -32 -27 -32h-99q-27 0 -27 32z" />
<glyph unicode="n" horiz-adv-x="982" d="M125 32v823q0 24 1 26.5t20 15.5q14 11 99 23q90 12 170 12h129q319 0 319 -301v-599q0 -32 -27 -32h-100q-26 0 -26 32v610q0 83 -44.5 118.5t-142.5 35.5h-105q-91 0 -128 -10q-12 -3 -12 -35v-719q0 -32 -26 -32h-100q-27 0 -27 32z" />
<glyph unicode="o" horiz-adv-x="977" d="M86 458q0 217 65 322q95 156 339 156h2q245 0 338 -148q64 -104 64 -314q0 -229 -84 -345q-103 -142 -318 -142h-2q-231 0 -326 138q-78 110 -78 333zM244 381q0 -259 211 -259h75q209 0 209 261v157q0 260 -209 260h-90q-196 0 -196 -252v-167z" />
<glyph unicode="p" horiz-adv-x="943" d="M130 -353v1216q0 26 27 35q81 30 275 30h82q149 0 237 -75q99 -86 99 -253v-278q0 -145 -98 -237q-94 -90 -236 -90h-41q-84 0 -124 20q-34 17 -70 68v-436q0 -31 -26 -31h-98q-27 0 -27 31zM277 209q0 -38 23 -55q50 -33 118 -33h102q100 0 148 72q33 53 33 130v278 q0 194 -181 194h-128q-115 0 -115 -31v-555z" />
<glyph unicode="q" horiz-adv-x="938" d="M93 317v283q0 162 96 249q91 82 245 82h108q214 0 249 -21q19 -10 20.5 -13.5t1.5 -28.5v-1221q0 -31 -26 -31h-98q-27 0 -27 31v445q-62 -87 -167 -87h-81q-139 0 -224 73q-97 83 -97 239zM242 308q0 -179 171 -179h149q47 0 81 24q23 16 23 54v551q0 33 -10 35 q-49 7 -131 7h-125q-158 0 -158 -188v-304z" />
<glyph unicode="r" horiz-adv-x="628" d="M119 32v616q0 141 85 210q91 76 266 76q52 0 87 -19q23 -11 23 -35v-98q0 -36 -31 -20q-62 31 -122 31q-115 0 -139 -22q-15 -14 -15 -52v-687q0 -32 -27 -32h-100q-27 0 -27 32z" />
<glyph unicode="s" horiz-adv-x="802" d="M93 670q0 125 96 203q68 55 209 55q105 0 218 -25q37 -7 37 -34v-54q0 -28 -43 -22q-54 9 -230 9q-83 0 -114 -23q-26 -19 -26 -68v-75q0 -55 19 -74q25 -26 105 -26l55 1q161 0 228.5 -65.5t67.5 -209.5q0 -134 -89 -205q-82 -67 -246 -67q-146 0 -237 34q-36 13 -36 35 v57q0 30 42 22q82 -17 216 -17q107 0 133 7q66 19 66 94v90q0 71 -43 92q-26 13 -103 13h-82q-127 0 -188 63q-55 57 -55 190z" />
<glyph unicode="t" horiz-adv-x="581" d="M38 817v49q0 18 20 23l49 11q33 8 44 19q15 17 15 58v131q0 24 26 24h95q26 0 26 -28v-189h168q26 0 26 -28v-74q0 -24 -25 -24h-169v-560q0 -63 18 -88q21 -31 81 -31q47 0 84 13q10 3 16 3q15 -1 15 -20v-55q0 -20 -22 -31q-71 -33 -139 -33q-200 0 -200 240v562h-102 q-26 0 -26 28z" />
<glyph unicode="u" horiz-adv-x="964" d="M113 305v577q0 30 27 30h101q27 0 27 -30v-578q0 -105 44 -144q39 -34 140 -34h49q117 0 161 36q17 13 17 41v679q0 30 27 30h99q27 0 27 -30v-686q0 -72 43 -72h36q30 0 30 -29v-31q0 -25 -38 -38l-45 -14q-54 -19 -66 -19q-65 0 -105 93q-69 -97 -205 -97h-63 q-306 0 -306 316z" />
<glyph unicode="v" horiz-adv-x="925" d="M34 871q-5 14 -5 23q0 20 23 20h104q26 0 35 -24l259 -730h15l260 732q8 22 42 22h96q21 0 21 -19q0 -10 -6 -25l-318 -828q-17 -45 -62 -45h-80q-46 0 -63 45z" />
<glyph unicode="w" horiz-adv-x="1424" d="M40 871q-4 12 -4 20q0 23 25 23h103q27 0 35 -33l189 -726h14l202 705q8 27 20 33q5 3 32 3h104q27 0 32 -3q12 -6 20 -33l201 -705h14l189 724q10 35 35 35h102q27 0 27 -23q0 -8 -3 -18l-251 -831q-14 -45 -62 -45h-101q-43 0 -56 45l-193 672h-14l-192 -672 q-13 -45 -57 -45h-100q-49 0 -63 45z" />
<glyph unicode="x" horiz-adv-x="851" d="M23 26q0 16 10 30l299 417l-274 395q-11 15 -11 27q0 19 27 19h106q24 0 39 -22l206 -314l205 308q18 28 41 28h106q28 0 28 -18q0 -12 -9 -25l-279 -399l304 -416q10 -14 10 -29q0 -27 -27 -27h-96q-32 0 -45 19l-238 351l-236 -351q-13 -19 -45 -19h-93q-28 0 -28 26z " />
<glyph unicode="y" horiz-adv-x="898" d="M40 870q-5 13 -5 22q0 22 27 22h106q25 0 34 -28l246 -753h13l230 755q7 26 40 26h94q27 0 27 -23q0 -9 -4 -21l-320 -986q-88 -275 -297 -275q-45 0 -102 20q-14 6 -14 30v58q0 20 37 17q62 -4 62 -5h-3q125 0 175 159l43 139h-59q-35 0 -49 41z" />
<glyph unicode="z" horiz-adv-x="781" d="M43 19q-2 6 -2 13q0 11 6 21l451 730h-397q-26 0 -26 28v75q0 11 2 16q4 10 24 10h581q28 0 28 -26q0 -12 -8 -25l-456 -730h462q21 0 24 -12q2 -5 2 -14v-77q0 -28 -26 -28h-639q-21 0 -26 19z" />
<glyph unicode="{" horiz-adv-x="699" d="M21 512q0 69 31 93l70 53q57 43 74 67q24 34 24 86v338q0 153 81 210q59 40 187 40h143q38 0 38 -51v-5q-2 -53 -38 -53h-141q-70 0 -98.5 -31.5t-28.5 -106.5v-364q0 -77 -24 -112q-16 -23 -90 -74l-113 -80v-13l113 -81q68 -49 90 -86q24 -42 24 -123v-321 q0 -139 127 -139h141q38 0 38 -52v-5q-2 -52 -38 -52h-143q-268 0 -268 268v300q0 53 -24 87q-18 27 -74 68l-70 50q-31 23 -31 89z" />
<glyph unicode="|" horiz-adv-x="469" d="M167 -303v1639q0 40 51 40h33q32 0 41 -9t9 -39v-1631q0 -47 -52 -47h-31q-51 0 -51 47z" />
<glyph unicode="}" horiz-adv-x="699" d="M32 -298q0 57 40 57h140q127 0 127 139v321q0 81 24 122q21 37 90 87l112 81v13l-112 80q-72 49 -90 79q-24 37 -24 116v355q0 75 -28.5 106.5t-98.5 31.5h-140q-40 0 -40 53q0 56 40 56h142q128 0 187 -40q81 -57 81 -210v-338q0 -52 24 -86q18 -24 74 -67l69 -53 q30 -22 30 -93q0 -67 -30 -89l-69 -50q-56 -41 -75 -68q-23 -33 -23 -87v-300q0 -268 -268 -268h-142q-40 0 -40 52z" />
<glyph unicode="~" horiz-adv-x="1154" d="M145 430q-1 6 -1 12q0 20 9 34q47 86 88 121q55 47 134 47q53 0 98 -20q22 -9 81 -37l117 -55q59 -27 110 -27q132 0 213 142q20 -14 20 -36q0 -17 -12 -44q-73 -162 -223 -162q-62 0 -217 80q-117 60 -175 60q-147 0 -227 -153q-12 11 -15 38z" />
<glyph unicode="&#xa2;" horiz-adv-x="1059" d="M100 489q0 343 217 462q109 60 221 60q33 0 93 -8l105 360l102 -29l-104 -360q171 -75 210 -276l-163 -26q-24 105 -89 159l-207 -712q31 -8 57 -8q106 0 175 74q63 68 78 177l167 -19q-30 -165 -139 -265q-112 -104 -278 -104q-46 0 -96 13l-110 -367l-104 29l107 371 q-242 115 -242 469zM272 498q0 -248 114 -333l207 709q-29 3 -46 3q-178 0 -242 -173q-33 -90 -33 -206z" />
<glyph unicode="&#xa3;" horiz-adv-x="1059" d="M25 135q214 118 214 364q0 57 -16 116h-182v137h143q-47 161 -47 246q0 194 143 302q114 87 279 87q170 0 278.5 -92.5t133.5 -260.5l-167 -25q-13 105 -77 171q-68 69 -172 69q-99 0 -168 -63q-72 -65 -72 -164q0 -103 53 -270h293v-137h-264q18 -41 18 -82 q0 -180 -166 -355q74 20 134 20q76 0 174 -23q159 -38 217 -38q69 0 178 52l54 -154q-138 -58 -226 -58q-39 0 -79 7q-114 37 -243 69q-31 7 -88 7q-146 0 -281 -86z" />
<glyph unicode="&#xa5;" horiz-adv-x="1059" d="M-3 1363h186l270 -479q45 -80 71 -144q24 56 76 152l255 471h199l-377 -661h317v-137h-383v-133h383v-130h-383v-302h-167v302h-386v130h386v133h-386v137h317z" />
<glyph unicode="&#xa8;" d="M57 1181v191h175v-191h-175zM404 1181v191h174v-191h-174z" />
<glyph unicode="&#xa9;" horiz-adv-x="1321" d="M40 605q0 265 179 444q185 185 440 185q263 0 448 -185q91 -91 133 -201.5t42 -242.5q0 -131 -42 -242.5t-133 -204.5q-185 -185 -448 -185t-446 185q-91 93 -132 204.5t-41 242.5zM127 605q0 -114 34.5 -210t114.5 -176q156 -160 383 -160q225 0 384 160 q80 80 114.5 176t34.5 210q0 115 -34.5 207.5t-114.5 172.5q-163 164 -384 164q-223 0 -383 -160q-80 -80 -114.5 -174.5t-34.5 -209.5zM329 609q0 73 9 125.5t25 90.5t38 64.5t50 47.5q42 30 93.5 41.5t124.5 11.5q55 0 112 -10.5t97 -23.5q25 -6 25 -33v-32 q0 -15 -6 -20.5t-25 -1.5q-49 11 -109 20.5t-105 9.5q-98 0 -159 -53.5t-61 -156.5v-167q0 -103 60 -155.5t160 -52.5q69 0 116 9l89 16q36 8 36 -17v-25q0 -11 -5 -21.5t-25 -18.5q-42 -13 -96.5 -23.5t-103.5 -10.5q-84 0 -144 14t-104 58q-23 23 -40 48.5t-28.5 62 t-17.5 86t-6 117.5z" />
<glyph unicode="&#xab;" horiz-adv-x="1059" d="M125 491l296 424h138l-243 -424l241 -424h-136zM489 491l291 424h142l-246 -424l246 -424h-142z" />
<glyph unicode="&#xae;" horiz-adv-x="1321" d="M40 605q0 265 179 444q185 185 440 185q263 0 448 -185q91 -91 133 -201.5t42 -242.5q0 -131 -42 -242.5t-133 -204.5q-185 -185 -448 -185t-446 185q-91 93 -132 204.5t-41 242.5zM127 605q0 -114 34.5 -210t114.5 -176q156 -160 383 -160q225 0 384 160 q80 80 114.5 176t34.5 210q0 115 -34.5 209.5t-114.5 174.5q-159 160 -384 160q-223 0 -383 -160q-80 -80 -114.5 -174.5t-34.5 -209.5zM400 261v699q0 27 27 27h293q85 0 143.5 -45.5t58.5 -151.5v-32q0 -183 -195 -207l235 -292q8 -9 8 -17q0 -10 -14 -10h-74q-13 0 -16 1 t-13 14l-232 300q-27 0 -62 2.5t-60 8.5v-297q0 -17 -7 -23t-18 -6h-49q-18 0 -21.5 7t-3.5 22zM499 634h223q65 0 86 32.5t21 98.5q0 75 -24 105.5t-83 30.5h-223v-267z" />
<glyph unicode="&#xb4;" d="M206 1110l124 261h220l-205 -261h-139z" />
<glyph unicode="&#xb8;" d="M100 -380l10 108q59 -3 87 -3q150 0 150 69q0 37 -50 53q-30 9 -96 10l48 164h125l-31 -99q159 -19 159 -137q0 -92 -94 -139q-73 -38 -175 -38q-76 0 -133 12z" />
<glyph unicode="&#xbb;" horiz-adv-x="1059" d="M130 67l246 424l-246 424h141l292 -424l-292 -424h-141zM493 915h138l296 -424l-296 -424h-137l242 424z" />
<glyph unicode="&#x17f;" horiz-adv-x="423" d="M127 1093q0 294 274 294q73 0 155 -17l-24 -146q-50 9 -99 9q-81 0 -111 -38q-27 -33 -27 -116v-1079h-168v1093z" />
<glyph unicode="&#x2c6;" d="M23 1110l201 261h179l209 -261h-190l-102 159l-105 -159h-192z" />
<glyph unicode="&#x2da;" d="M151 1244q0 69 49 118t118 49q71 0 119 -50t48 -120q0 -71 -47.5 -121t-118.5 -50q-73 0 -120.5 50.5t-47.5 123.5zM221 1243q0 -41 28.5 -72t70.5 -31q41 0 69.5 30.5t28.5 71.5t-28 71t-70 30q-41 0 -70 -29.5t-29 -70.5z" />
<glyph unicode="&#x2dc;" d="M7 1134q-1 90 48 148q52 64 140 64q58 0 157 -51q55 -27 88 -27q57 0 68 80h121q-6 -212 -183 -212q-58 0 -154 53q-62 33 -91 33q-73 0 -71 -88h-123z" />
<glyph unicode="&#x2013;" horiz-adv-x="1059" d="M-4 426v135h1060v-135h-1060z" />
<glyph unicode="&#x2014;" horiz-adv-x="1904" d="M0 426v135h1905v-135h-1905z" />
<glyph unicode="&#x2018;" horiz-adv-x="423" d="M119 940v154q0 123 30 180q39 74 123 113l41 -65q-97 -41 -102 -187h88v-195h-180z" />
<glyph unicode="&#x2019;" horiz-adv-x="423" d="M100 997q97 39 103 186h-88v194h180v-153q0 -125 -29 -180q-40 -75 -125 -113z" />
<glyph unicode="&#x201a;" horiz-adv-x="423" d="M100 -186q97 39 103 186h-88v194h180v-153q0 -125 -29 -180q-40 -75 -125 -113z" />
<glyph unicode="&#x201c;" d="M77 940v154q0 123 30 180q39 74 124 113l41 -65q-98 -41 -103 -187h88v-195h-180zM365 940v154q0 123 30 180q39 74 124 113l41 -65q-98 -41 -102 -187h87v-195h-180z" />
<glyph unicode="&#x201d;" d="M66 997q97 39 102 186h-87v194h179v-153q0 -125 -28 -180q-40 -75 -125 -113zM354 997q97 39 103 186h-88v194h180v-153q0 -125 -29 -180q-40 -75 -125 -113z" />
<glyph unicode="&#x201e;" d="M66 -186q97 39 102 186h-87v194h179v-153q0 -125 -28 -180q-40 -75 -125 -113zM354 -186q97 39 103 186h-88v194h180v-153q0 -125 -29 -180q-40 -75 -125 -113z" />
<glyph unicode="&#x2026;" horiz-adv-x="1904" d="M222 0v191h191v-191h-191zM857 0v191h191v-191h-191zM1492 0v191h191v-191h-191z" />
<glyph unicode="&#x2039;" d="M86 490l293 425h138l-246 -425l246 -423h-138z" />
<glyph unicode="&#x203a;" d="M86 67l246 426l-246 422h138l283 -417l-283 -431h-138z" />
<glyph unicode="&#x2122;" horiz-adv-x="1330" d="M139 1162v40q0 19 18 19h405q18 0 18 -19v-40q0 -19 -18 -19h-158v-505q0 -11 -6 -14t-14 -3h-45q-13 0 -16 5t-3 14v503h-163q-18 0 -18 19zM653 644v556q0 21 25 21h99q9 0 17 -3.5t11 -19.5l115 -425l120 425q3 16 9.5 19.5t16.5 3.5h101q25 0 25 -21v-556 q0 -15 -6 -19t-15 -4h-44q-13 0 -15.5 5.5t-2.5 17.5v410l7 95h-4l-150 -507q-6 -21 -27 -21h-33q-20 0 -26 21l-143 507h-4l6 -95v-410q0 -15 -5.5 -19t-16.5 -4h-42q-14 0 -16 5.5t-2 17.5z" />
<glyph unicode="&#xe000;" horiz-adv-x="915" d="M0 915h915v-915h-915v915z" />
<glyph unicode="&#xfb00;" horiz-adv-x="1149" d="M29 817v45q0 18 19 23l59 15q33 9 40 15q11 12 11 52v82q0 146 79 220q63 57 156 57q66 0 130 -20q22 -8 22 -34v-57q0 -19 -32 -17q-28 1 -94 1q-123 0 -123 -116q0 -13 1 -25l14 -143h197q25 0 25 -24v-74q0 -28 -26 -28h-194v-761q0 -28 -26 -28h-95q-26 0 -26 24v765 h-111q-26 0 -26 28zM604 817v45q0 18 19 23l59 15q33 9 40 15q11 12 11 52v82q0 146 79 220q63 57 156 57q66 0 130 -20q22 -8 22 -34v-57q0 -19 -32 -17q-28 1 -94 1q-123 0 -123 -116q0 -13 1 -25l14 -143h197q25 0 25 -24v-74q0 -28 -26 -28h-194v-761q0 -28 -26 -28h-95 q-26 0 -26 24v765h-111q-26 0 -26 28z" />
<glyph unicode="&#xfb01;" horiz-adv-x="971" d="M29 817v45q0 18 19 23l59 15q33 9 40 15q11 12 11 52v82q0 146 79 220q63 57 156 57q66 0 130 -20q22 -8 22 -34v-57q0 -19 -32 -17q-28 1 -94 1q-123 0 -123 -116q0 -13 1 -25l14 -143h197q25 0 25 -24v-74q0 -28 -26 -28h-194v-761q0 -28 -26 -28h-95q-26 0 -26 24v765 h-111q-26 0 -26 28zM700 24v862q0 28 26 28h95q26 0 26 -24v-862q0 -28 -26 -28h-95q-26 0 -26 24zM701 1069v100q0 28 26 28h95q25 0 25 -24v-101q0 -28 -26 -28h-95q-25 0 -25 25z" />
<glyph unicode="&#xfb02;" horiz-adv-x="1021" d="M29 817v45q0 18 19 23l59 15q33 9 40 15q11 12 11 52v82q0 146 79 220q63 57 156 57q66 0 130 -20q22 -8 22 -34v-57q0 -19 -32 -17q-28 1 -94 1q-123 0 -123 -116q0 -13 1 -25l14 -143h197q25 0 25 -24v-74q0 -28 -26 -28h-194v-761q0 -28 -26 -28h-95q-26 0 -26 24v765 h-111q-26 0 -26 28zM705 134v1161q0 31 27 31h97q27 0 27 -31v-1120q0 -54 45 -56l45 -2q38 -2 38 -29v-45q0 -34 -38 -39l-44 -6q-41 -5 -76 -5h-2q-119 0 -119 141z" />
<glyph unicode="&#xfb03;" horiz-adv-x="1546" d="M29 817v45q0 18 19 23l59 15q33 9 40 15q11 12 11 52v82q0 146 79 220q63 57 156 57q66 0 130 -20q22 -8 22 -34v-57q0 -19 -32 -17q-28 1 -94 1q-123 0 -123 -116q0 -13 1 -25l14 -143h197q25 0 25 -24v-74q0 -28 -26 -28h-194v-761q0 -28 -26 -28h-95q-26 0 -26 24v765 h-111q-26 0 -26 28zM604 817v45q0 18 19 23l59 15q33 9 40 15q11 12 11 52v82q0 146 79 220q63 57 156 57q66 0 130 -20q22 -8 22 -34v-57q0 -19 -32 -17q-28 1 -94 1q-123 0 -123 -116q0 -13 1 -25l14 -143h197q25 0 25 -24v-74q0 -28 -26 -28h-194v-761q0 -28 -26 -28h-95 q-26 0 -26 24v765h-111q-26 0 -26 28zM1274 24v862q0 28 26 28h95q26 0 26 -24v-862q0 -28 -26 -28h-95q-26 0 -26 24zM1275 1069v100q0 28 26 28h95q25 0 25 -24v-101q0 -28 -26 -28h-95q-25 0 -25 25z" />
<glyph unicode="&#xfb04;" horiz-adv-x="1595" d="M29 817v45q0 18 19 23l59 15q33 9 40 15q11 12 11 52v82q0 146 79 220q63 57 156 57q66 0 130 -20q22 -8 22 -34v-57q0 -19 -32 -17q-28 1 -94 1q-123 0 -123 -116q0 -13 1 -25l14 -143h197q25 0 25 -24v-74q0 -28 -26 -28h-194v-761q0 -28 -26 -28h-95q-26 0 -26 24v765 h-111q-26 0 -26 28zM604 817v45q0 18 19 23l59 15q33 9 40 15q11 12 11 52v82q0 146 79 220q63 57 156 57q66 0 130 -20q22 -8 22 -34v-57q0 -19 -32 -17q-28 1 -94 1q-123 0 -123 -116q0 -13 1 -25l14 -143h197q25 0 25 -24v-74q0 -28 -26 -28h-194v-761q0 -28 -26 -28h-95 q-26 0 -26 24v765h-111q-26 0 -26 28zM1279 134v1161q0 31 27 31h97q27 0 27 -31v-1120q0 -54 45 -56l45 -2q38 -2 38 -29v-45q0 -34 -38 -39l-44 -6q-41 -5 -76 -5h-2q-119 0 -119 141z" />
<glyph unicode="&#xfb05;" horiz-adv-x="1004" d="M127 0v1093q0 294 274 294q73 0 155 -17l-24 -146q-50 9 -99 9q-81 0 -111 -38q-27 -33 -27 -116v-1079h-168zM461 817v49q0 18 20 23l49 11q33 8 44 19q15 17 15 58v131q0 24 26 24h95q26 0 26 -28v-189h168q26 0 26 -28v-74q0 -24 -25 -24h-169v-560q0 -63 18 -88 q21 -31 81 -31q47 0 84 13q10 3 16 3q15 -1 15 -20v-55q0 -20 -22 -31q-71 -33 -139 -33q-200 0 -200 240v562h-102q-26 0 -26 28z" />
<glyph unicode="&#xfb06;" horiz-adv-x="1383" d="M93 670q0 125 96 203q68 55 209 55q105 0 218 -25q37 -7 37 -34v-54q0 -28 -43 -22q-54 9 -230 9q-83 0 -114 -23q-26 -19 -26 -68v-75q0 -55 19 -74q25 -26 105 -26l55 1q161 0 228.5 -65.5t67.5 -209.5q0 -134 -89 -205q-82 -67 -246 -67q-146 0 -237 34q-36 13 -36 35 v57q0 30 42 22q82 -17 216 -17q107 0 133 7q66 19 66 94v90q0 71 -43 92q-26 13 -103 13h-82q-127 0 -188 63q-55 57 -55 190zM841 817v49q0 18 20 23l49 11q33 8 44 19q15 17 15 58v131q0 24 26 24h95q26 0 26 -28v-189h168q26 0 26 -28v-74q0 -24 -25 -24h-169v-560 q0 -63 18 -88q21 -31 81 -31q47 0 84 13q10 3 16 3q15 -1 15 -20v-55q0 -20 -22 -31q-71 -33 -139 -33q-200 0 -200 240v562h-102q-26 0 -26 28z" />
<glyph unicode="&#xfb29;" horiz-adv-x="714" d="M42 603v43q0 38 46 38h210v212q0 48 37 48h44q38 0 38 -48v-212h207q48 0 48 -38v-43q0 -38 -48 -38h-207v-216q0 -46 -38 -46h-44q-37 0 -37 46v216h-210q-46 0 -46 38z" />
</font>
</defs>
</svg>
